<?xml version="1.0" standalone="no"?>
<!DOCTYPE svg PUBLIC "-//W3C//DTD SVG 20010904//EN"
 "http://www.w3.org/TR/2001/REC-SVG-20010904/DTD/svg10.dtd">
<svg version="1.0" xmlns="http://www.w3.org/2000/svg"
 width="700.000000pt" height="700.000000pt" viewBox="0 0 700.000000 700.000000"
 preserveAspectRatio="xMidYMid meet">
<metadata>
Created by potrace 1.14, written by Peter Selinger 2001-2017
</metadata>
<g transform="translate(0.000000,700.000000) scale(0.100000,-0.100000)"
fill="#000000" stroke="none">
<path d="M0 3500 l0 -3500 3500 0 3500 0 0 3500 0 3500 -3500 0 -3500 0 0
-3500z m1391 1146 c108 -27 192 -60 264 -103 53 -31 72 -64 62 -104 -10 -40
-126 -183 -159 -197 -29 -12 -37 -11 -121 29 -118 54 -201 68 -279 45 -128
-37 -172 -133 -103 -226 33 -45 70 -65 220 -122 296 -112 447 -224 506 -375
18 -46 22 -80 23 -163 1 -122 -15 -179 -76 -278 -134 -211 -437 -308 -713
-227 -143 42 -316 144 -352 209 -28 49 -17 77 60 149 114 109 141 115 224 51
18 -13 68 -42 110 -62 73 -35 84 -37 173 -37 79 0 102 4 137 22 50 27 80 63
94 115 23 86 -57 157 -279 248 -313 128 -424 218 -481 388 -25 73 -28 219 -7
297 34 130 118 232 244 299 134 70 288 84 453 42z m1563 9 c48 -9 103 -22 122
-30 l34 -14 0 -166 c0 -162 0 -166 -23 -176 -17 -8 -37 -4 -92 17 -195 73
-415 25 -565 -125 -213 -214 -214 -550 -1 -760 151 -149 355 -195 556 -126 85
30 93 30 117 8 16 -14 18 -34 18 -168 0 -177 2 -173 -100 -201 -49 -14 -101
-18 -215 -18 -134 0 -159 3 -238 27 -369 113 -614 426 -634 809 -15 274 81
508 285 699 202 190 468 271 736 224z m1350 0 c48 -9 103 -22 122 -30 l34 -14
0 -164 c0 -188 -5 -202 -63 -178 -146 60 -293 66 -420 18 -311 -119 -441 -474
-284 -772 68 -129 207 -227 367 -261 92 -19 175 -13 277 22 87 28 87 28 107 8
13 -13 16 -43 16 -169 0 -179 5 -170 -110 -201 -89 -25 -308 -25 -400 0 -270
71 -472 234 -587 471 -68 141 -86 224 -86 390 0 170 19 252 93 400 86 173 213
304 378 388 190 97 363 126 556 92z m1238 -119 c15 -11 798 -1602 798 -1621 0
-3 -84 -4 -187 -3 l-187 3 -61 139 c-34 76 -72 147 -84 158 -21 17 -46 18
-325 18 -247 0 -305 -3 -322 -14 -12 -9 -49 -80 -84 -160 l-63 -146 -189 0
c-103 0 -188 4 -188 8 0 18 760 1588 779 1610 22 25 85 30 113 8z m-4642
-1925 c0 -28 -3 -30 -42 -33 l-43 -3 -3 -117 -3 -118 -29 0 -30 0 0 120 0 120
-40 0 c-38 0 -40 2 -40 30 l0 30 115 0 115 0 0 -29z m2010 -36 l66 -65 64 65
c97 98 100 96 100 -85 l0 -150 -30 0 -30 0 0 97 0 97 -55 -54 -55 -54 -50 49
-50 49 0 -92 0 -92 -30 0 -30 0 0 150 c0 180 2 182 100 85z m2250 -50 l0 -115
59 0 c58 0 59 -1 63 -30 3 -17 2 -32 0 -35 -3 -3 -45 -5 -94 -5 l-88 0 0 150
0 150 30 0 30 0 0 -115z m1160 85 l0 -30 -65 0 -65 0 0 -30 c0 -29 2 -30 45
-30 43 0 45 -1 45 -30 0 -29 -2 -30 -45 -30 -43 0 -45 -1 -45 -30 0 -29 1 -29
63 -32 59 -3 62 -4 65 -30 l3 -28 -100 0 -101 0 0 150 0 150 100 0 100 0 0
-30z m-4422 -119 c34 -76 62 -144 62 -150 0 -6 -11 -11 -25 -11 -18 0 -31 9
-43 30 -16 28 -21 30 -73 30 -53 0 -57 -2 -69 -30 -10 -24 -19 -30 -41 -30
-16 0 -29 3 -29 8 -1 19 135 292 145 292 7 0 40 -63 73 -139z m2300 -4 c34
-78 62 -145 62 -149 0 -5 -12 -8 -27 -8 -21 0 -33 8 -45 30 -16 28 -21 30 -73
30 -53 0 -57 -1 -66 -30 -9 -25 -16 -30 -45 -30 l-33 0 41 88 c22 48 53 115
69 150 15 34 34 62 41 62 7 0 41 -64 76 -143z"/>
<path d="M5481 3952 c-23 -42 -161 -354 -161 -363 0 -5 79 -9 176 -9 140 0
174 3 166 13 -8 10 -56 117 -157 351 -12 29 -13 29 -24 8z"/>
<path d="M1812 2495 c-16 -35 -16 -35 17 -35 28 0 29 1 18 30 -14 37 -20 37
-35 5z"/>
<path d="M4118 2514 c-3 -11 -9 -27 -13 -36 -6 -15 -2 -18 19 -18 29 0 32 13
12 49 -12 21 -13 22 -18 5z"/>
</g>
</svg>
