<svg xmlns="http://www.w3.org/2000/svg" width="141" height="141" fill="none"><path d="M0 0h141v141H0z" style="fill:#000;fill-opacity:1;stroke-width:4.8"/><g fill="#231f20" style="fill:#fff"><path d="M19.605 43.02q-2.531 0-4.896-.692a18.3 18.3 0 0 1-4.456-1.97h.054a16.7 16.7 0 0 1-2.64-1.97l-.023-.023a1.98 1.98 0 0 1 .028-2.953l2.743-2.452a2.05 2.05 0 0 1 2.615-.085c.569.444 1.217.871 1.953 1.278q1.099.614 2.31 1.038 1.211.427 2.31.426a8.3 8.3 0 0 0 1.871-.213 5.9 5.9 0 0 0 1.705-.665q.77-.45 1.266-1.199.496-.745.495-1.864-.001-.423-.302-.933-.305-.505-1.046-1.092-.742-.585-2.064-1.25-1.32-.666-3.3-1.413a43 43 0 0 1-4.29-1.836c-1.321-.655-2.467-1.43-3.439-2.315A9.6 9.6 0 0 1 8.244 19.8q-.8-1.704-.798-3.94c0-1.492.292-2.956.88-4.287a10.1 10.1 0 0 1 2.502-3.462q1.623-1.464 3.904-2.29c1.52-.551 3.2-.827 5.032-.827q1.484 0 3.164.372 1.677.374 3.273.958 1.597.588 2.997 1.358.342.19.656.38a1.79 1.79 0 0 1 .46 2.68l-2.39 2.904a2.03 2.03 0 0 1-2.556.473q-.35-.2-.707-.392-.934-.479-2.146-.905a7.4 7.4 0 0 0-2.476-.427q-2.31 0-3.602.878-1.292.88-1.292 2.53 0 .747.466 1.357.466.614 1.267 1.119.796.507 1.843.93c.697.286 1.436.534 2.2.8 2.22.77 4.05 1.643 5.555 2.477q2.253 1.25 3.63 2.663 1.372 1.411 1.953 3.035.577 1.625.577 3.541 0 2.344-.99 4.42a11 11 0 0 1-2.722 3.594q-1.733 1.518-4.125 2.397t-5.199.879zM133 42.648h-8.416l-2.62-5.698a1.95 1.95 0 0 0-1.779-1.12h-12.147a1.95 1.95 0 0 0-1.781 1.123c-.334.737-2.133 4.663-2.574 5.693h-8.36l17.007-34.14c.707-1.419 2.794-1.421 3.507-.004L133 42.65ZM117.867 28.06l-3.791-8.256-3.792 8.257a.264.264 0 0 0 .249.37h7.083c.197 0 .328-.197.249-.37zM59.759 34.473q-2.34 1.146-5.09 1.144-2.474.001-4.647-.905a12.1 12.1 0 0 1-3.797-2.477 11.6 11.6 0 0 1-2.558-3.673 10.96 10.96 0 0 1-.936-4.5q-.002-2.397.936-4.526a11.6 11.6 0 0 1 2.558-3.7 12.5 12.5 0 0 1 3.797-2.505q2.172-.93 4.648-.93c1.65 0 3.2.337 4.758 1.012q.195.086.392.179c.713.337 1.543-.176 1.543-.943V6.95c0-.445-.287-.85-.72-.99A19.3 19.3 0 0 0 54.67 5q-3.796.001-7.342 1.412a19.9 19.9 0 0 0-6.27 3.941q-2.724 2.53-4.346 6.043-1.623 3.515-1.623 7.669.002 3.566 1.374 6.976a18.9 18.9 0 0 0 3.933 6.07q2.558 2.663 6.188 4.287 3.614 1.616 8.045 1.622c2.056.003 4.091-.31 6.024-.955.43-.144.71-.546.71-.985v-5.69c0-.79-.861-1.281-1.59-.924zM89.678 34.473q-2.339 1.146-5.089 1.144-2.473.001-4.647-.905a12.1 12.1 0 0 1-3.797-2.477 11.6 11.6 0 0 1-2.559-3.673 10.95 10.95 0 0 1-.935-4.5q-.001-2.397.935-4.526a11.6 11.6 0 0 1 2.559-3.7 12.5 12.5 0 0 1 3.797-2.505q2.171-.93 4.647-.93c1.651 0 3.2.337 4.758 1.012q.197.086.393.179c.712.337 1.543-.176 1.543-.943V6.95c0-.445-.287-.85-.72-.99A19.3 19.3 0 0 0 84.589 5q-3.795.001-7.342 1.412a19.9 19.9 0 0 0-6.27 3.941q-2.723 2.53-4.346 6.043-1.622 3.515-1.622 7.669 0 3.566 1.374 6.976a18.9 18.9 0 0 0 3.932 6.07q2.558 2.663 6.189 4.287 3.615 1.616 8.044 1.622c2.056.003 4.092-.31 6.025-.955.43-.144.71-.546.71-.985v-5.69c0-.79-.862-1.281-1.59-.924zM12.202 49.769h-1.38c-.125 0-.225.099-.225.218v4.963H9.27v-4.963a.22.22 0 0 0-.225-.218h-1.4a.22.22 0 0 1-.226-.219v-1.065h5.01v1.065a.22.22 0 0 1-.226.219zM62.086 48.42v6.53H60.77v-4.174l-2.244 2.154a.234.234 0 0 1-.32 0l-2.235-2.154v4.174h-1.326v-6.53h.736l2.827 2.72c.088.085.231.085.321 0l2.835-2.72h.726zM109.248 54.95h-3.789v-6.465h1.1c.126 0 .226.1.226.219v4.963h2.463c.126 0 .226.1.226.219v.843a.223.223 0 0 1-.226.219zM129.424 49.769v1.082c0 .121.102.218.225.218h1.713c.126 0 .225.1.225.218v.854a.22.22 0 0 1-.225.218h-1.938v1.083c0 .121.102.218.225.218h2.513c.125 0 .225.1.225.218v.844a.22.22 0 0 1-.225.218h-4.066v-6.464h4.066c.125 0 .225.099.225.218v.844a.22.22 0 0 1-.225.218h-2.741zM87.04 55h-1.459l-.453-1.057a.34.34 0 0 0-.308-.209h-2.107a.34.34 0 0 0-.308.209c-.059.136-.369.866-.446 1.055h-1.45l2.95-6.332a.333.333 0 0 1 .607 0L87.043 55Zm-2.625-2.705-.656-1.531-.657 1.53c-.012.033.01.07.044.07h1.228c.033 0 .056-.037.044-.07zM36.243 55h-1.459l-.454-1.057a.34.34 0 0 0-.307-.209h-2.108a.34.34 0 0 0-.307.209c-.06.136-.37.866-.446 1.055H29.71l2.95-6.332a.333.333 0 0 1 .608 0L36.245 55Zm-2.625-2.705-.657-1.531-.656 1.53c-.013.033.01.07.044.07h1.228c.033 0 .056-.037.043-.07z" style="fill:#fff" transform="translate(0 39.095)"/></g></svg>
