<?xml version="1.0" encoding="UTF-8"?>
<svg fill="none" version="1.1" viewBox="0 0 141 70" xmlns="http://www.w3.org/2000/svg">
<g transform="translate(.50146 -34.092)" fill="#fff">
<path transform="translate(0,39.095)" d="m19.605 43.02q-2.531 0-4.896-0.692a18.3 18.3 0 0 1-4.456-1.97h0.054a16.7 16.7 0 0 1-2.64-1.97l-0.023-0.023a1.98 1.98 0 0 1 0.028-2.953l2.743-2.452a2.05 2.05 0 0 1 2.615-0.085c0.569 0.444 1.217 0.871 1.953 1.278q1.099 0.614 2.31 1.038 1.211 0.427 2.31 0.426a8.3 8.3 0 0 0 1.871-0.213 5.9 5.9 0 0 0 1.705-0.665q0.77-0.45 1.266-1.199 0.496-0.745 0.495-1.864-1e-3 -0.423-0.302-0.933-0.305-0.505-1.046-1.092-0.742-0.585-2.064-1.25-1.32-0.666-3.3-1.413a43 43 0 0 1-4.29-1.836c-1.321-0.655-2.467-1.43-3.439-2.315a9.6 9.6 0 0 1-2.255-3.037q-0.8-1.704-0.798-3.94c0-1.492 0.292-2.956 0.88-4.287a10.1 10.1 0 0 1 2.502-3.462q1.623-1.464 3.904-2.29c1.52-0.551 3.2-0.827 5.032-0.827q1.484 0 3.164 0.372 1.677 0.374 3.273 0.958 1.597 0.588 2.997 1.358 0.342 0.19 0.656 0.38a1.79 1.79 0 0 1 0.46 2.68l-2.39 2.904a2.03 2.03 0 0 1-2.556 0.473q-0.35-0.2-0.707-0.392-0.934-0.479-2.146-0.905a7.4 7.4 0 0 0-2.476-0.427q-2.31 0-3.602 0.878-1.292 0.88-1.292 2.53 0 0.747 0.466 1.357 0.466 0.614 1.267 1.119 0.796 0.507 1.843 0.93c0.697 0.286 1.436 0.534 2.2 0.8 2.22 0.77 4.05 1.643 5.555 2.477q2.253 1.25 3.63 2.663 1.372 1.411 1.953 3.035 0.577 1.625 0.577 3.541 0 2.344-0.99 4.42a11 11 0 0 1-2.722 3.594q-1.733 1.518-4.125 2.397t-5.199 0.879zm113.4-0.372h-8.416l-2.62-5.698a1.95 1.95 0 0 0-1.779-1.12h-12.147a1.95 1.95 0 0 0-1.781 1.123c-0.334 0.737-2.133 4.663-2.574 5.693h-8.36l17.007-34.14c0.707-1.419 2.794-1.421 3.507-4e-3l17.163 34.148zm-15.133-14.588-3.791-8.256-3.792 8.257a0.264 0.264 0 0 0 0.249 0.37h7.083c0.197 0 0.328-0.197 0.249-0.37zm-58.108 6.413q-2.34 1.146-5.09 1.144-2.474 1e-3 -4.647-0.905a12.1 12.1 0 0 1-3.797-2.477 11.6 11.6 0 0 1-2.558-3.673 10.96 10.96 0 0 1-0.936-4.5q-2e-3 -2.397 0.936-4.526a11.6 11.6 0 0 1 2.558-3.7 12.5 12.5 0 0 1 3.797-2.505q2.172-0.93 4.648-0.93c1.65 0 3.2 0.337 4.758 1.012q0.195 0.086 0.392 0.179c0.713 0.337 1.543-0.176 1.543-0.943v-5.699c0-0.445-0.287-0.85-0.72-0.99a19.3 19.3 0 0 0-5.973-0.96q-3.796 1e-3 -7.342 1.412a19.9 19.9 0 0 0-6.27 3.941q-2.724 2.53-4.346 6.043-1.623 3.515-1.623 7.669 2e-3 3.566 1.374 6.976a18.9 18.9 0 0 0 3.933 6.07q2.558 2.663 6.188 4.287 3.614 1.616 8.045 1.622c2.056 3e-3 4.091-0.31 6.024-0.955 0.43-0.144 0.71-0.546 0.71-0.985v-5.69c0-0.79-0.861-1.281-1.59-0.924zm29.919 0q-2.339 1.146-5.089 1.144-2.473 1e-3 -4.647-0.905a12.1 12.1 0 0 1-3.797-2.477 11.6 11.6 0 0 1-2.559-3.673 10.95 10.95 0 0 1-0.935-4.5q-1e-3 -2.397 0.935-4.526a11.6 11.6 0 0 1 2.559-3.7 12.5 12.5 0 0 1 3.797-2.505q2.171-0.93 4.647-0.93c1.651 0 3.2 0.337 4.758 1.012q0.197 0.086 0.393 0.179c0.712 0.337 1.543-0.176 1.543-0.943v-5.699c0-0.445-0.287-0.85-0.72-0.99a19.3 19.3 0 0 0-5.974-0.96q-3.795 1e-3 -7.342 1.412a19.9 19.9 0 0 0-6.27 3.941q-2.723 2.53-4.346 6.043-1.622 3.515-1.622 7.669 0 3.566 1.374 6.976a18.9 18.9 0 0 0 3.932 6.07q2.558 2.663 6.189 4.287 3.615 1.616 8.044 1.622c2.056 3e-3 4.092-0.31 6.025-0.955 0.43-0.144 0.71-0.546 0.71-0.985v-5.69c0-0.79-0.862-1.281-1.59-0.924zm-77.476 15.296h-1.38c-0.125 0-0.225 0.099-0.225 0.218v4.963h-1.327v-4.963a0.22 0.22 0 0 0-0.225-0.218h-1.4a0.22 0.22 0 0 1-0.226-0.219v-1.065h5.01v1.065a0.22 0.22 0 0 1-0.226 0.219zm49.884-1.349v6.53h-1.316v-4.174l-2.244 2.154a0.234 0.234 0 0 1-0.32 0l-2.235-2.154v4.174h-1.326v-6.53h0.736l2.827 2.72c0.088 0.085 0.231 0.085 0.321 0l2.835-2.72h0.726zm47.162 6.53h-3.789v-6.465h1.1c0.126 0 0.226 0.1 0.226 0.219v4.963h2.463c0.126 0 0.226 0.1 0.226 0.219v0.843a0.223 0.223 0 0 1-0.226 0.219zm20.176-5.181v1.082c0 0.121 0.102 0.218 0.225 0.218h1.713c0.126 0 0.225 0.1 0.225 0.218v0.854a0.22 0.22 0 0 1-0.225 0.218h-1.938v1.083c0 0.121 0.102 0.218 0.225 0.218h2.513c0.125 0 0.225 0.1 0.225 0.218v0.844a0.22 0.22 0 0 1-0.225 0.218h-4.066v-6.464h4.066c0.125 0 0.225 0.099 0.225 0.218v0.844a0.22 0.22 0 0 1-0.225 0.218h-2.741zm-42.384 5.231h-1.459l-0.453-1.057a0.34 0.34 0 0 0-0.308-0.209h-2.107a0.34 0.34 0 0 0-0.308 0.209c-0.059 0.136-0.369 0.866-0.446 1.055h-1.45l2.95-6.332a0.333 0.333 0 0 1 0.607 0l2.977 6.334zm-2.625-2.705-0.656-1.531-0.657 1.53c-0.012 0.033 0.01 0.07 0.044 0.07h1.228c0.033 0 0.056-0.037 0.044-0.07zm-48.172 2.705h-1.459l-0.454-1.057a0.34 0.34 0 0 0-0.307-0.209h-2.108a0.34 0.34 0 0 0-0.307 0.209c-0.06 0.136-0.37 0.866-0.446 1.055h-1.452l2.95-6.332a0.333 0.333 0 0 1 0.608 0l2.977 6.334zm-2.625-2.705-0.657-1.531-0.656 1.53c-0.013 0.033 0.01 0.07 0.044 0.07h1.228c0.033 0 0.056-0.037 0.043-0.07z" fill="#000"/>
</g>
</svg>
